<mxfile host="app.diagrams.net" agent="Mozilla/5.0 (Macintosh; Intel Mac OS X 10_15_7) AppleWebKit/537.36 (KHTML, like Gecko) Chrome/133.0.0.0 Safari/537.36" version="26.1.0">
  <diagram name="第 1 页" id="aY3-wSYd7FBDr0BQkGIM">
    <mxGraphModel dx="2474" dy="1121" grid="1" gridSize="10" guides="1" tooltips="1" connect="1" arrows="1" fold="1" page="0" pageScale="1" pageWidth="827" pageHeight="1169" math="0" shadow="0">
      <root>
        <mxCell id="0" />
        <mxCell id="1" parent="0" />
        <mxCell id="5pKJ-dRwUtHqWaumvsPP-36" value="" style="rounded=0;whiteSpace=wrap;html=1;fillColor=none;dashed=1;dashPattern=1 4;" vertex="1" parent="1">
          <mxGeometry x="200" y="810" width="145" height="220" as="geometry" />
        </mxCell>
        <mxCell id="5pKJ-dRwUtHqWaumvsPP-1" value="" style="rounded=0;whiteSpace=wrap;html=1;fillColor=none;dashed=1;dashPattern=8 8;" vertex="1" parent="1">
          <mxGeometry x="485" y="220" width="310" height="580" as="geometry" />
        </mxCell>
        <mxCell id="5pKJ-dRwUtHqWaumvsPP-2" value="" style="edgeStyle=orthogonalEdgeStyle;rounded=0;orthogonalLoop=1;jettySize=auto;html=1;" edge="1" parent="1" source="5pKJ-dRwUtHqWaumvsPP-3" target="5pKJ-dRwUtHqWaumvsPP-17">
          <mxGeometry relative="1" as="geometry" />
        </mxCell>
        <mxCell id="5pKJ-dRwUtHqWaumvsPP-3" value="" style="rounded=0;whiteSpace=wrap;html=1;fillColor=none;dashed=1;dashPattern=8 8;" vertex="1" parent="1">
          <mxGeometry x="-125" y="220" width="310" height="580" as="geometry" />
        </mxCell>
        <mxCell id="5pKJ-dRwUtHqWaumvsPP-4" value="" style="edgeStyle=orthogonalEdgeStyle;rounded=0;orthogonalLoop=1;jettySize=auto;html=1;" edge="1" parent="1" source="5pKJ-dRwUtHqWaumvsPP-5" target="5pKJ-dRwUtHqWaumvsPP-3">
          <mxGeometry relative="1" as="geometry" />
        </mxCell>
        <mxCell id="5pKJ-dRwUtHqWaumvsPP-5" value="&lt;div&gt;&lt;b&gt;&lt;font style=&quot;font-size: 14px;&quot;&gt;launcher&lt;/font&gt;&lt;/b&gt;&lt;/div&gt;Component" style="html=1;dropTarget=0;whiteSpace=wrap;" vertex="1" parent="1">
          <mxGeometry x="-320" y="465" width="130" height="90" as="geometry" />
        </mxCell>
        <mxCell id="5pKJ-dRwUtHqWaumvsPP-6" value="" style="shape=module;jettyWidth=8;jettyHeight=4;" vertex="1" parent="5pKJ-dRwUtHqWaumvsPP-5">
          <mxGeometry x="1" width="20" height="20" relative="1" as="geometry">
            <mxPoint x="-27" y="7" as="offset" />
          </mxGeometry>
        </mxCell>
        <mxCell id="5pKJ-dRwUtHqWaumvsPP-7" value="&lt;div&gt;&lt;b&gt;&lt;font style=&quot;font-size: 14px;&quot;&gt;user-interface-web&lt;/font&gt;&lt;/b&gt;&lt;/div&gt;Component&lt;div&gt;提供 Web 相关服务&lt;/div&gt;" style="html=1;dropTarget=0;whiteSpace=wrap;" vertex="1" parent="1">
          <mxGeometry x="-60" y="270" width="180" height="90" as="geometry" />
        </mxCell>
        <mxCell id="5pKJ-dRwUtHqWaumvsPP-8" value="" style="shape=module;jettyWidth=8;jettyHeight=4;" vertex="1" parent="5pKJ-dRwUtHqWaumvsPP-7">
          <mxGeometry x="1" width="20" height="20" relative="1" as="geometry">
            <mxPoint x="-27" y="7" as="offset" />
          </mxGeometry>
        </mxCell>
        <mxCell id="5pKJ-dRwUtHqWaumvsPP-9" value="&lt;div&gt;&lt;b&gt;&lt;font style=&quot;font-size: 14px;&quot;&gt;user-interface-provider&lt;/font&gt;&lt;/b&gt;&lt;/div&gt;Component&lt;div&gt;提供 RPC 相关服务&lt;/div&gt;" style="html=1;dropTarget=0;whiteSpace=wrap;" vertex="1" parent="1">
          <mxGeometry x="-60" y="400" width="180" height="90" as="geometry" />
        </mxCell>
        <mxCell id="5pKJ-dRwUtHqWaumvsPP-10" value="" style="shape=module;jettyWidth=8;jettyHeight=4;" vertex="1" parent="5pKJ-dRwUtHqWaumvsPP-9">
          <mxGeometry x="1" width="20" height="20" relative="1" as="geometry">
            <mxPoint x="-27" y="7" as="offset" />
          </mxGeometry>
        </mxCell>
        <mxCell id="5pKJ-dRwUtHqWaumvsPP-11" value="&lt;div&gt;&lt;b&gt;&lt;font style=&quot;font-size: 14px;&quot;&gt;user-interface-subscriber&lt;/font&gt;&lt;/b&gt;&lt;/div&gt;Component&lt;div&gt;订阅外部消息&lt;/div&gt;" style="html=1;dropTarget=0;whiteSpace=wrap;" vertex="1" parent="1">
          <mxGeometry x="-60" y="530" width="180" height="90" as="geometry" />
        </mxCell>
        <mxCell id="5pKJ-dRwUtHqWaumvsPP-12" value="" style="shape=module;jettyWidth=8;jettyHeight=4;" vertex="1" parent="5pKJ-dRwUtHqWaumvsPP-11">
          <mxGeometry x="1" width="20" height="20" relative="1" as="geometry">
            <mxPoint x="-27" y="7" as="offset" />
          </mxGeometry>
        </mxCell>
        <mxCell id="5pKJ-dRwUtHqWaumvsPP-13" value="&lt;div&gt;&lt;b&gt;&lt;font style=&quot;font-size: 14px;&quot;&gt;user-interface-worker&lt;/font&gt;&lt;/b&gt;&lt;/div&gt;Component&lt;div&gt;定时任务&lt;/div&gt;" style="html=1;dropTarget=0;whiteSpace=wrap;" vertex="1" parent="1">
          <mxGeometry x="-60" y="660" width="180" height="90" as="geometry" />
        </mxCell>
        <mxCell id="5pKJ-dRwUtHqWaumvsPP-14" value="" style="shape=module;jettyWidth=8;jettyHeight=4;" vertex="1" parent="5pKJ-dRwUtHqWaumvsPP-13">
          <mxGeometry x="1" width="20" height="20" relative="1" as="geometry">
            <mxPoint x="-27" y="7" as="offset" />
          </mxGeometry>
        </mxCell>
        <mxCell id="5pKJ-dRwUtHqWaumvsPP-15" value="" style="edgeStyle=orthogonalEdgeStyle;rounded=0;orthogonalLoop=1;jettySize=auto;html=1;" edge="1" parent="1" source="5pKJ-dRwUtHqWaumvsPP-17" target="5pKJ-dRwUtHqWaumvsPP-1">
          <mxGeometry relative="1" as="geometry" />
        </mxCell>
        <mxCell id="5pKJ-dRwUtHqWaumvsPP-16" style="edgeStyle=orthogonalEdgeStyle;rounded=0;orthogonalLoop=1;jettySize=auto;html=1;entryX=0.5;entryY=0;entryDx=0;entryDy=0;" edge="1" parent="1" source="5pKJ-dRwUtHqWaumvsPP-17" target="5pKJ-dRwUtHqWaumvsPP-19">
          <mxGeometry relative="1" as="geometry" />
        </mxCell>
        <mxCell id="5pKJ-dRwUtHqWaumvsPP-17" value="&lt;div&gt;&lt;span style=&quot;font-size: 14px;&quot;&gt;&lt;b&gt;application-service&lt;/b&gt;&lt;/span&gt;&lt;/div&gt;Component&lt;div&gt;编排领域层和基础设施层&lt;/div&gt;&lt;div&gt;完成业务任务&lt;/div&gt;" style="html=1;dropTarget=0;whiteSpace=wrap;" vertex="1" parent="1">
          <mxGeometry x="285" y="465" width="160" height="90" as="geometry" />
        </mxCell>
        <mxCell id="5pKJ-dRwUtHqWaumvsPP-18" value="" style="shape=module;jettyWidth=8;jettyHeight=4;" vertex="1" parent="5pKJ-dRwUtHqWaumvsPP-17">
          <mxGeometry x="1" width="20" height="20" relative="1" as="geometry">
            <mxPoint x="-27" y="7" as="offset" />
          </mxGeometry>
        </mxCell>
        <mxCell id="5pKJ-dRwUtHqWaumvsPP-37" style="edgeStyle=orthogonalEdgeStyle;rounded=0;orthogonalLoop=1;jettySize=auto;html=1;entryX=0.5;entryY=0;entryDx=0;entryDy=0;" edge="1" parent="1">
          <mxGeometry relative="1" as="geometry">
            <mxPoint x="312.5" y="675" as="sourcePoint" />
            <mxPoint x="270" y="810" as="targetPoint" />
            <Array as="points">
              <mxPoint x="270.5" y="675" />
              <mxPoint x="270.5" y="765" />
            </Array>
          </mxGeometry>
        </mxCell>
        <mxCell id="5pKJ-dRwUtHqWaumvsPP-38" value="include" style="edgeLabel;html=1;align=center;verticalAlign=middle;resizable=0;points=[];" vertex="1" connectable="0" parent="5pKJ-dRwUtHqWaumvsPP-37">
          <mxGeometry x="0.3785" y="3" relative="1" as="geometry">
            <mxPoint x="-3" y="-5" as="offset" />
          </mxGeometry>
        </mxCell>
        <mxCell id="5pKJ-dRwUtHqWaumvsPP-19" value="&lt;div&gt;&lt;b&gt;&lt;font style=&quot;font-size: 14px;&quot;&gt;domain&lt;/font&gt;&lt;/b&gt;&lt;/div&gt;Component&lt;div&gt;业务逻辑的核心实现&lt;/div&gt;" style="html=1;dropTarget=0;whiteSpace=wrap;" vertex="1" parent="1">
          <mxGeometry x="300" y="630" width="130" height="90" as="geometry" />
        </mxCell>
        <mxCell id="5pKJ-dRwUtHqWaumvsPP-20" value="" style="shape=module;jettyWidth=8;jettyHeight=4;" vertex="1" parent="5pKJ-dRwUtHqWaumvsPP-19">
          <mxGeometry x="1" width="20" height="20" relative="1" as="geometry">
            <mxPoint x="-27" y="7" as="offset" />
          </mxGeometry>
        </mxCell>
        <mxCell id="5pKJ-dRwUtHqWaumvsPP-21" value="&lt;div&gt;&lt;span style=&quot;font-size: 14px;&quot;&gt;&lt;b&gt;infrastructure-persistence&lt;/b&gt;&lt;/span&gt;&lt;/div&gt;Component&lt;div&gt;持久层&lt;/div&gt;" style="html=1;dropTarget=0;whiteSpace=wrap;" vertex="1" parent="1">
          <mxGeometry x="540" y="270" width="200" height="90" as="geometry" />
        </mxCell>
        <mxCell id="5pKJ-dRwUtHqWaumvsPP-22" value="" style="shape=module;jettyWidth=8;jettyHeight=4;" vertex="1" parent="5pKJ-dRwUtHqWaumvsPP-21">
          <mxGeometry x="1" width="20" height="20" relative="1" as="geometry">
            <mxPoint x="-27" y="7" as="offset" />
          </mxGeometry>
        </mxCell>
        <mxCell id="5pKJ-dRwUtHqWaumvsPP-23" value="&lt;div&gt;&lt;span style=&quot;font-size: 14px;&quot;&gt;&lt;b&gt;infrastructure-gateway&lt;/b&gt;&lt;/span&gt;&lt;/div&gt;Component&lt;div&gt;依赖的第三方服务&lt;/div&gt;" style="html=1;dropTarget=0;whiteSpace=wrap;" vertex="1" parent="1">
          <mxGeometry x="540" y="530" width="200" height="90" as="geometry" />
        </mxCell>
        <mxCell id="5pKJ-dRwUtHqWaumvsPP-24" value="" style="shape=module;jettyWidth=8;jettyHeight=4;" vertex="1" parent="5pKJ-dRwUtHqWaumvsPP-23">
          <mxGeometry x="1" width="20" height="20" relative="1" as="geometry">
            <mxPoint x="-27" y="7" as="offset" />
          </mxGeometry>
        </mxCell>
        <mxCell id="5pKJ-dRwUtHqWaumvsPP-25" value="&lt;div&gt;&lt;span style=&quot;font-size: 14px;&quot;&gt;&lt;b&gt;infrastructure-cache&lt;/b&gt;&lt;/span&gt;&lt;/div&gt;Component&lt;div&gt;缓存&lt;/div&gt;" style="html=1;dropTarget=0;whiteSpace=wrap;" vertex="1" parent="1">
          <mxGeometry x="540" y="400" width="200" height="90" as="geometry" />
        </mxCell>
        <mxCell id="5pKJ-dRwUtHqWaumvsPP-26" value="" style="shape=module;jettyWidth=8;jettyHeight=4;" vertex="1" parent="5pKJ-dRwUtHqWaumvsPP-25">
          <mxGeometry x="1" width="20" height="20" relative="1" as="geometry">
            <mxPoint x="-27" y="7" as="offset" />
          </mxGeometry>
        </mxCell>
        <mxCell id="5pKJ-dRwUtHqWaumvsPP-27" value="&lt;div&gt;&lt;span style=&quot;font-size: 14px;&quot;&gt;&lt;b&gt;infrastructure-publisher&lt;/b&gt;&lt;/span&gt;&lt;/div&gt;Component&lt;div&gt;发布消息给外部&lt;/div&gt;" style="html=1;dropTarget=0;whiteSpace=wrap;" vertex="1" parent="1">
          <mxGeometry x="540" y="660" width="200" height="90" as="geometry" />
        </mxCell>
        <mxCell id="5pKJ-dRwUtHqWaumvsPP-28" value="" style="shape=module;jettyWidth=8;jettyHeight=4;" vertex="1" parent="5pKJ-dRwUtHqWaumvsPP-27">
          <mxGeometry x="1" width="20" height="20" relative="1" as="geometry">
            <mxPoint x="-27" y="7" as="offset" />
          </mxGeometry>
        </mxCell>
        <mxCell id="5pKJ-dRwUtHqWaumvsPP-29" style="edgeStyle=orthogonalEdgeStyle;rounded=0;orthogonalLoop=1;jettySize=auto;html=1;entryX=0.454;entryY=1;entryDx=0;entryDy=0;entryPerimeter=0;" edge="1" parent="1" source="5pKJ-dRwUtHqWaumvsPP-1" target="5pKJ-dRwUtHqWaumvsPP-19">
          <mxGeometry relative="1" as="geometry">
            <Array as="points">
              <mxPoint x="640" y="820" />
              <mxPoint x="359" y="820" />
            </Array>
          </mxGeometry>
        </mxCell>
        <mxCell id="5pKJ-dRwUtHqWaumvsPP-30" value="&lt;div&gt;&lt;span style=&quot;font-size: 14px;&quot;&gt;&lt;b&gt;pkg&lt;/b&gt;&lt;/span&gt;&lt;/div&gt;Component&lt;div&gt;通用业务无关组件&lt;/div&gt;" style="html=1;dropTarget=0;whiteSpace=wrap;" vertex="1" parent="1">
          <mxGeometry x="270" y="280" width="130" height="90" as="geometry" />
        </mxCell>
        <mxCell id="5pKJ-dRwUtHqWaumvsPP-31" value="" style="shape=module;jettyWidth=8;jettyHeight=4;" vertex="1" parent="5pKJ-dRwUtHqWaumvsPP-30">
          <mxGeometry x="1" width="20" height="20" relative="1" as="geometry">
            <mxPoint x="-27" y="7" as="offset" />
          </mxGeometry>
        </mxCell>
        <mxCell id="5pKJ-dRwUtHqWaumvsPP-32" value="entity" style="rounded=0;whiteSpace=wrap;html=1;" vertex="1" parent="1">
          <mxGeometry x="225" y="830" width="90" height="30" as="geometry" />
        </mxCell>
        <mxCell id="5pKJ-dRwUtHqWaumvsPP-33" value="factory interface" style="rounded=0;whiteSpace=wrap;html=1;" vertex="1" parent="1">
          <mxGeometry x="225" y="880" width="90" height="30" as="geometry" />
        </mxCell>
        <mxCell id="5pKJ-dRwUtHqWaumvsPP-34" value="repo interface" style="rounded=0;whiteSpace=wrap;html=1;" vertex="1" parent="1">
          <mxGeometry x="225" y="930" width="90" height="30" as="geometry" />
        </mxCell>
        <mxCell id="5pKJ-dRwUtHqWaumvsPP-35" value="domain service&lt;div&gt;interface&lt;/div&gt;" style="rounded=0;whiteSpace=wrap;html=1;" vertex="1" parent="1">
          <mxGeometry x="225" y="980" width="90" height="30" as="geometry" />
        </mxCell>
      </root>
    </mxGraphModel>
  </diagram>
</mxfile>
